<?xml version="1.0" encoding="utf-8"?>
<!-- Generator: Adobe Illustrator 25.4.1, SVG Export Plug-In . SVG Version: 6.00 Build 0)  -->
<svg version="1.1" id="Layer_1" xmlns="http://www.w3.org/2000/svg" xmlns:xlink="http://www.w3.org/1999/xlink" x="0px" y="0px"
	 viewBox="0 0 500 500" style="enable-background:new 0 0 500 500;" xml:space="preserve">
<style type="text/css">
	.trakteer{fill:#BF202F;}
</style>
<path class="trakteer" d="M170.3,216.2c53.2,0,105.7,0,159,0c0,3.4-0.3,6.7,0.1,10c0.2,1.3,1.5,3.1,2.7,3.6c20.7,7.5,30.1,20.7,30.1,42.8
	c0,42.4,0,84.8,0,127.2c0,26.9-16.9,43.7-43.9,43.7c-44.8,0-89.7,0-134.5,0c-25.5,0-42.8-17.3-42.8-42.8c0-43.1,0-86.1,0-129.2
	c0-19.4,8.7-32.8,26.4-40.6c1.3-0.6,2.3-2.6,2.8-4.1c0.5-1.6,0.1-3.5,0.1-5.3C170.3,219.9,170.3,218.3,170.3,216.2z M251.3,394.8
	c17.3-16.9,35.2-34.3,52.8-52c3.5-3.5,6.1-8.4,7.9-13.1c5.2-13.6,2.7-26.2-7.6-36.6c-10.2-10.2-22.7-12.8-36.1-7.8
	c-6.2,2.3-11.7,6.5-18,10.2c-1.8-1.4-4.2-3.5-6.8-5.3c-14-9.7-30.5-9.9-42.8-0.5c-16.3,12.5-18.7,35.7-3.3,52.2
	C214.5,360.4,233.4,377.4,251.3,394.8z"/>
<path class="trakteer" d="M250.8,165c23.7,0,47.4,0,71.1,0c10.5,0,17.7,6.4,17.8,15.6c0.1,9.4-7.2,16.1-17.9,16.1c-47.4,0-94.8,0-142.2,0
	c-10.3,0-17.6-6.7-17.5-15.9c0-9.2,7.3-15.8,17.6-15.8C203.4,165,227.1,165,250.8,165z"/>
<path class="trakteer" d="M270.1,89.7c-23.4,3.5-42.4,23.2-37.7,52.7c-16.7,5.6-40.4-10.7-45.9-31.6c-6.3-24,8.9-48.5,33.3-53.5
	C242.6,52.8,267,68.3,270.1,89.7z"/>
<path class="trakteer" d="M278.9,155.3c-9.3,0-18.7,0.2-28-0.1c-1.7-0.1-4.2-1.5-5-3.1c-8.2-15.2-3.9-34.7,9.8-45.8
	c13.8-11.2,33.6-11.1,47.3,0.1c13.7,11.2,17.9,30.7,9.6,45.9c-0.8,1.5-3.3,2.9-5.1,2.9C298,155.5,288.4,155.3,278.9,155.3z"/>
</svg>
